<svg xmlns="http://www.w3.org/2000/svg" width="512" height="512" viewBox="0 0 512 512">
  <defs>
    <radialGradient id="g" cx="0.5" cy="0.42" r="0.72">
      <stop offset="0" stop-color="#C6F24E" stop-opacity="0.28"/>
      <stop offset="1" stop-color="#C6F24E" stop-opacity="0"/>
    </radialGradient>
  </defs>
  <rect width="512" height="512" fill="#F6F7F4"/>
  <g><path d="M 42.67 0 L 42.67 512" stroke="#07090F" stroke-opacity="0.05" stroke-width="1"/><path d="M 0 42.67 L 512 42.67" stroke="#07090F" stroke-opacity="0.05" stroke-width="1"/><path d="M 85.33 0 L 85.33 512" stroke="#07090F" stroke-opacity="0.05" stroke-width="1"/><path d="M 0 85.33 L 512 85.33" stroke="#07090F" stroke-opacity="0.05" stroke-width="1"/><path d="M 128.00 0 L 128.00 512" stroke="#07090F" stroke-opacity="0.05" stroke-width="1"/><path d="M 0 128.00 L 512 128.00" stroke="#07090F" stroke-opacity="0.05" stroke-width="1"/><path d="M 170.67 0 L 170.67 512" stroke="#07090F" stroke-opacity="0.05" stroke-width="1"/><path d="M 0 170.67 L 512 170.67" stroke="#07090F" stroke-opacity="0.05" stroke-width="1"/><path d="M 213.33 0 L 213.33 512" stroke="#07090F" stroke-opacity="0.05" stroke-width="1"/><path d="M 0 213.33 L 512 213.33" stroke="#07090F" stroke-opacity="0.05" stroke-width="1"/><path d="M 256.00 0 L 256.00 512" stroke="#07090F" stroke-opacity="0.05" stroke-width="1"/><path d="M 0 256.00 L 512 256.00" stroke="#07090F" stroke-opacity="0.05" stroke-width="1"/><path d="M 298.67 0 L 298.67 512" stroke="#07090F" stroke-opacity="0.05" stroke-width="1"/><path d="M 0 298.67 L 512 298.67" stroke="#07090F" stroke-opacity="0.05" stroke-width="1"/><path d="M 341.33 0 L 341.33 512" stroke="#07090F" stroke-opacity="0.05" stroke-width="1"/><path d="M 0 341.33 L 512 341.33" stroke="#07090F" stroke-opacity="0.05" stroke-width="1"/><path d="M 384.00 0 L 384.00 512" stroke="#07090F" stroke-opacity="0.05" stroke-width="1"/><path d="M 0 384.00 L 512 384.00" stroke="#07090F" stroke-opacity="0.05" stroke-width="1"/><path d="M 426.67 0 L 426.67 512" stroke="#07090F" stroke-opacity="0.05" stroke-width="1"/><path d="M 0 426.67 L 512 426.67" stroke="#07090F" stroke-opacity="0.05" stroke-width="1"/><path d="M 469.33 0 L 469.33 512" stroke="#07090F" stroke-opacity="0.05" stroke-width="1"/><path d="M 0 469.33 L 512 469.33" stroke="#07090F" stroke-opacity="0.05" stroke-width="1"/></g>
  <rect width="512" height="512" fill="url(#g)"/>
</svg>